HIERARCHY
ROOT mixamorig:Hips
{
	OFFSET -0.000008 104.274872 1.554316
	CHANNELS 6 Xposition Yposition Zposition Xrotation Yrotation Zrotation
	JOINT mixamorig:Spine
	{
		OFFSET -0.000005 10.181595 0.131519
		CHANNELS 6 Xposition Yposition Zposition Xrotation Yrotation Zrotation
		JOINT mixamorig:Spine1
		{
			OFFSET -0.000000 9.893959 -1.470707
			CHANNELS 6 Xposition Yposition Zposition Xrotation Yrotation Zrotation
			JOINT mixamorig:Spine2
			{
				OFFSET -0.000000 9.220757 -1.370641
				CHANNELS 6 Xposition Yposition Zposition Xrotation Yrotation Zrotation
				JOINT mixamorig:Neck
				{
					OFFSET 0.000001 16.740417 -2.049036
					CHANNELS 6 Xposition Yposition Zposition Xrotation Yrotation Zrotation
					JOINT mixamorig:Head
					{
						OFFSET 0.000000 9.617874 1.685006
						CHANNELS 6 Xposition Yposition Zposition Xrotation Yrotation Zrotation
						JOINT mixamorig:HeadTop_End
						{
							OFFSET 0.000002 22.037354 7.501101
							CHANNELS 6 Xposition Yposition Zposition Xrotation Yrotation Zrotation
							End Site
							{
								OFFSET 0.000168 2310.654297 -282.823242
							}
						}
					}
				}
				JOINT mixamorig:RightShoulder
				{
					OFFSET -4.569970 11.014908 -2.160885
					CHANNELS 6 Xposition Yposition Zposition Xrotation Yrotation Zrotation
					JOINT mixamorig:RightArm
					{
						OFFSET -10.592851 -0.524811 -2.232101
						CHANNELS 6 Xposition Yposition Zposition Xrotation Yrotation Zrotation
						JOINT mixamorig:RightForeArm
						{
							OFFSET -27.841511 0.000031 -0.000004
							CHANNELS 6 Xposition Yposition Zposition Xrotation Yrotation Zrotation
							JOINT mixamorig:RightHand
							{
								OFFSET -28.328831 -0.000015 0.000015
								CHANNELS 6 Xposition Yposition Zposition Xrotation Yrotation Zrotation
								JOINT mixamorig:RightHandThumb1
								{
									OFFSET -2.464806 -1.573990 2.681852
									CHANNELS 6 Xposition Yposition Zposition Xrotation Yrotation Zrotation
									JOINT mixamorig:RightHandThumb2
									{
										OFFSET -3.215179 -1.872803 1.924282
										CHANNELS 6 Xposition Yposition Zposition Xrotation Yrotation Zrotation
										JOINT mixamorig:RightHandThumb3
										{
											OFFSET -2.654831 -1.527969 1.512609
											CHANNELS 6 Xposition Yposition Zposition Xrotation Yrotation Zrotation
											JOINT mixamorig:RightHandThumb4
											{
												OFFSET -2.018814 -1.152008 1.108052
												CHANNELS 6 Xposition Yposition Zposition Xrotation Yrotation Zrotation
												End Site
												{
													OFFSET -188.809540 -114.533607 132.431396
												}
											}
										}
									}
								}
								JOINT mixamorig:RightHandIndex1
								{
									OFFSET -9.108284 -0.517868 2.259835
									CHANNELS 6 Xposition Yposition Zposition Xrotation Yrotation Zrotation
									JOINT mixamorig:RightHandIndex2
									{
										OFFSET -3.699989 0.000000 0.001215
										CHANNELS 6 Xposition Yposition Zposition Xrotation Yrotation Zrotation
										JOINT mixamorig:RightHandIndex3
										{
											OFFSET -2.850006 0.000031 -0.000522
											CHANNELS 6 Xposition Yposition Zposition Xrotation Yrotation Zrotation
											JOINT mixamorig:RightHandIndex4
											{
												OFFSET -2.772186 -0.000015 -0.000020
												CHANNELS 6 Xposition Yposition Zposition Xrotation Yrotation Zrotation
												End Site
												{
													OFFSET -277.218445 0.000000 -0.050231
												}
											}
										}
									}
								}
								JOINT mixamorig:RightHandMiddle1
								{
									OFFSET -9.532516 -0.000031 -0.000023
									CHANNELS 6 Xposition Yposition Zposition Xrotation Yrotation Zrotation
									JOINT mixamorig:RightHandMiddle2
									{
										OFFSET -3.700005 -0.000015 0.003713
										CHANNELS 6 Xposition Yposition Zposition Xrotation Yrotation Zrotation
										JOINT mixamorig:RightHandMiddle3
										{
											OFFSET -2.949974 0.000015 -0.002054
											CHANNELS 6 Xposition Yposition Zposition Xrotation Yrotation Zrotation
											JOINT mixamorig:RightHandMiddle4
											{
												OFFSET -2.946640 0.000000 -0.000156
												CHANNELS 6 Xposition Yposition Zposition Xrotation Yrotation Zrotation
												End Site
												{
													OFFSET -294.664337 0.000000 -0.113670
												}
											}
										}
									}
								}
								JOINT mixamorig:RightHandRing1
								{
									OFFSET -9.103600 -0.043076 -1.865134
									CHANNELS 6 Xposition Yposition Zposition Xrotation Yrotation Zrotation
									JOINT mixamorig:RightHandRing2
									{
										OFFSET -3.379288 0.000000 -0.001055
										CHANNELS 6 Xposition Yposition Zposition Xrotation Yrotation Zrotation
										JOINT mixamorig:RightHandRing3
										{
											OFFSET -2.889687 -0.000015 0.000379
											CHANNELS 6 Xposition Yposition Zposition Xrotation Yrotation Zrotation
											JOINT mixamorig:RightHandRing4
											{
												OFFSET -2.638809 -0.000015 0.000941
												CHANNELS 6 Xposition Yposition Zposition Xrotation Yrotation Zrotation
												End Site
												{
													OFFSET -263.880371 0.000000 0.516020
												}
											}
										}
									}
								}
								JOINT mixamorig:RightHandPinky1
								{
									OFFSET -8.076683 -0.486710 -3.806280
									CHANNELS 6 Xposition Yposition Zposition Xrotation Yrotation Zrotation
									JOINT mixamorig:RightHandPinky2
									{
										OFFSET -3.600014 -0.000015 -0.003747
										CHANNELS 6 Xposition Yposition Zposition Xrotation Yrotation Zrotation
										JOINT mixamorig:RightHandPinky3
										{
											OFFSET -2.099983 0.000000 -0.005739
											CHANNELS 6 Xposition Yposition Zposition Xrotation Yrotation Zrotation
											JOINT mixamorig:RightHandPinky4
											{
												OFFSET -2.115768 -0.000031 -0.003680
												CHANNELS 6 Xposition Yposition Zposition Xrotation Yrotation Zrotation
												End Site
												{
													OFFSET -211.577087 0.000000 -0.350686
												}
											}
										}
									}
								}
							}
						}
					}
				}
				JOINT mixamorig:LeftShoulder
				{
					OFFSET 4.570447 11.014725 -2.160855
					CHANNELS 6 Xposition Yposition Zposition Xrotation Yrotation Zrotation
					JOINT mixamorig:LeftArm
					{
						OFFSET 10.592371 -0.524597 -2.232119
						CHANNELS 6 Xposition Yposition Zposition Xrotation Yrotation Zrotation
						JOINT mixamorig:LeftForeArm
						{
							OFFSET 27.841532 -0.000031 0.000026
							CHANNELS 6 Xposition Yposition Zposition Xrotation Yrotation Zrotation
							JOINT mixamorig:LeftHand
							{
								OFFSET 28.328846 -0.000061 0.000022
								CHANNELS 6 Xposition Yposition Zposition Xrotation Yrotation Zrotation
								JOINT mixamorig:LeftHandThumb1
								{
									OFFSET 2.466141 -1.576172 2.681732
									CHANNELS 6 Xposition Yposition Zposition Xrotation Yrotation Zrotation
									JOINT mixamorig:LeftHandThumb2
									{
										OFFSET 3.217812 -1.872070 1.916482
										CHANNELS 6 Xposition Yposition Zposition Xrotation Yrotation Zrotation
										JOINT mixamorig:LeftHandThumb3
										{
											OFFSET 2.656029 -1.528778 1.514513
											CHANNELS 6 Xposition Yposition Zposition Xrotation Yrotation Zrotation
											JOINT mixamorig:LeftHandThumb4
											{
												OFFSET 2.020889 -1.154053 1.115139
												CHANNELS 6 Xposition Yposition Zposition Xrotation Yrotation Zrotation
												End Site
												{
													OFFSET 190.885437 -115.081749 130.048782
												}
											}
										}
									}
								}
								JOINT mixamorig:LeftHandIndex1
								{
									OFFSET 9.109314 -0.518021 2.259871
									CHANNELS 6 Xposition Yposition Zposition Xrotation Yrotation Zrotation
									JOINT mixamorig:LeftHandIndex2
									{
										OFFSET 3.699989 0.000000 -0.000322
										CHANNELS 6 Xposition Yposition Zposition Xrotation Yrotation Zrotation
										JOINT mixamorig:LeftHandIndex3
										{
											OFFSET 2.850006 0.000000 0.000352
											CHANNELS 6 Xposition Yposition Zposition Xrotation Yrotation Zrotation
											JOINT mixamorig:LeftHandIndex4
											{
												OFFSET 2.774864 -0.000031 -0.000027
												CHANNELS 6 Xposition Yposition Zposition Xrotation Yrotation Zrotation
												End Site
												{
													OFFSET 277.486267 0.000000 -0.009857
												}
											}
										}
									}
								}
								JOINT mixamorig:LeftHandMiddle1
								{
									OFFSET 9.533394 0.000061 0.000044
									CHANNELS 6 Xposition Yposition Zposition Xrotation Yrotation Zrotation
									JOINT mixamorig:LeftHandMiddle2
									{
										OFFSET 3.699989 -0.000015 -0.000231
										CHANNELS 6 Xposition Yposition Zposition Xrotation Yrotation Zrotation
										JOINT mixamorig:LeftHandMiddle3
										{
											OFFSET 2.949997 -0.000015 -0.000059
											CHANNELS 6 Xposition Yposition Zposition Xrotation Yrotation Zrotation
											JOINT mixamorig:LeftHandMiddle4
											{
												OFFSET 2.952896 0.000031 0.000063
												CHANNELS 6 Xposition Yposition Zposition Xrotation Yrotation Zrotation
												End Site
												{
													OFFSET 295.289337 0.000000 0.022810
												}
											}
										}
									}
								}
								JOINT mixamorig:LeftHandRing1
								{
									OFFSET 9.104523 -0.042999 -1.865074
									CHANNELS 6 Xposition Yposition Zposition Xrotation Yrotation Zrotation
									JOINT mixamorig:LeftHandRing2
									{
										OFFSET 3.150009 -0.000031 0.000043
										CHANNELS 6 Xposition Yposition Zposition Xrotation Yrotation Zrotation
										JOINT mixamorig:LeftHandRing3
										{
											OFFSET 2.949982 -0.000015 0.000040
											CHANNELS 6 Xposition Yposition Zposition Xrotation Yrotation Zrotation
											JOINT mixamorig:LeftHandRing4
											{
												OFFSET 2.644348 0.000000 0.000057
												CHANNELS 6 Xposition Yposition Zposition Xrotation Yrotation Zrotation
												End Site
												{
													OFFSET 264.434631 0.000000 0.012105
												}
											}
										}
									}
								}
								JOINT mixamorig:LeftHandPinky1
								{
									OFFSET 8.077789 -0.486847 -3.806259
									CHANNELS 6 Xposition Yposition Zposition Xrotation Yrotation Zrotation
									JOINT mixamorig:LeftHandPinky2
									{
										OFFSET 3.599953 0.000031 0.014727
										CHANNELS 6 Xposition Yposition Zposition Xrotation Yrotation Zrotation
										JOINT mixamorig:LeftHandPinky3
										{
											OFFSET 2.100021 0.000015 0.007705
											CHANNELS 6 Xposition Yposition Zposition Xrotation Yrotation Zrotation
											JOINT mixamorig:LeftHandPinky4
											{
												OFFSET 2.125504 0.000031 0.007517
												CHANNELS 6 Xposition Yposition Zposition Xrotation Yrotation Zrotation
												End Site
												{
													OFFSET 212.550781 0.000000 0.625752
												}
											}
										}
									}
								}
							}
						}
					}
				}
			}
		}
	}
	JOINT mixamorig:RightUpLeg
	{
		OFFSET -8.207787 -6.751648 -1.599560
		CHANNELS 6 Xposition Yposition Zposition Xrotation Yrotation Zrotation
		JOINT mixamorig:RightLeg
		{
			OFFSET -0.000002 -44.370117 0.345942
			CHANNELS 6 Xposition Yposition Zposition Xrotation Yrotation Zrotation
			JOINT mixamorig:RightFoot
			{
				OFFSET 0.000003 -44.423679 -3.043532
				CHANNELS 6 Xposition Yposition Zposition Xrotation Yrotation Zrotation
				JOINT mixamorig:RightToeBase
				{
					OFFSET -0.000002 -8.728671 10.710558
					CHANNELS 6 Xposition Yposition Zposition Xrotation Yrotation Zrotation
					JOINT mixamorig:RightToe_End
					{
						OFFSET -0.000001 -0.000679 9.278119
						CHANNELS 6 Xposition Yposition Zposition Xrotation Yrotation Zrotation
						End Site
						{
							OFFSET 0.000000 -0.067690 927.812134
						}
					}
				}
			}
		}
	}
	JOINT mixamorig:LeftUpLeg
	{
		OFFSET 8.207793 -6.751686 -1.599556
		CHANNELS 6 Xposition Yposition Zposition Xrotation Yrotation Zrotation
		JOINT mixamorig:LeftLeg
		{
			OFFSET -0.000004 -44.370014 0.346954
			CHANNELS 6 Xposition Yposition Zposition Xrotation Yrotation Zrotation
			JOINT mixamorig:LeftFoot
			{
				OFFSET -0.000001 -44.423672 -3.044401
				CHANNELS 6 Xposition Yposition Zposition Xrotation Yrotation Zrotation
				JOINT mixamorig:LeftToeBase
				{
					OFFSET -0.000002 -8.728669 10.710558
					CHANNELS 6 Xposition Yposition Zposition Xrotation Yrotation Zrotation
					JOINT mixamorig:LeftToe_End
					{
						OFFSET -0.000003 -0.000679 9.278133
						CHANNELS 6 Xposition Yposition Zposition Xrotation Yrotation Zrotation
						End Site
						{
							OFFSET 0.000000 -0.068021 927.813477
						}
					}
				}
			}
		}
	}
}
MOTION
Frames: 3
Frame Time: 0.033333
0.000006 104.270477 1.554256 0.000010 0.000003 -0.000113 -0.000005 10.181587 0.131522 0.000001 -0.000003 0.000084 -0.000000 9.893967 -1.470711 0.000001 0.000000 -0.000000 -0.000000 9.220802 -1.370642 0.000000 -0.000000 -0.000000 0.000001 16.740433 -2.049030 0.000000 -0.000000 -0.000000 0.000000 9.617859 1.685014 0.000000 0.000000 0.000000 0.000002 22.037384 7.501101 0.000000 -0.000000 0.000000 -4.569968 11.014880 -2.160881 0.000008 0.000001 -0.000038 -10.592870 -0.524779 -2.231881 78.045682 32.894533 -26.910578 -27.841528 0.000014 0.000551 -50.163395 108.221492 65.792262 -28.328812 0.000021 0.000029 -0.000320 -0.000043 0.000006 -2.464508 -1.573648 2.682262 124.354836 4.829116 137.252050 -3.215286 -1.872643 1.924669 152.341045 29.025282 -11.962668 -2.654960 -1.527897 1.513085 141.252806 27.870858 -40.986876 -2.018834 -1.152000 1.108063 -0.000005 -0.000003 0.000002 -9.108387 -0.517549 2.260083 90.058319 16.212566 -16.275550 -3.700052 0.000313 0.001453 85.617582 14.058042 -13.009108 -2.850086 0.000351 -0.000288 87.118093 12.126218 -11.534343 -2.772166 -0.000001 -0.000020 -0.000002 0.000001 -0.000002 -9.532580 0.000272 0.000194 85.375992 14.477737 -13.494318 -3.700056 0.000299 0.003926 85.160977 12.427846 -11.339606 -2.950076 0.000316 -0.001861 87.400064 12.019765 -11.483173 -2.946639 0.000000 -0.000156 0.000001 0.000002 -0.000000 -9.103689 -0.042745 -1.864899 85.202484 15.937370 -14.629604 -3.379336 0.000299 -0.000839 85.337599 9.580928 -8.850461 -2.889756 0.000350 0.000609 88.715640 7.265304 -7.149389 -2.638811 0.000000 0.000940 0.000002 0.000001 -0.000002 -8.076757 -0.486399 -3.806075 76.813680 16.474244 -12.973628 -3.600022 0.000269 -0.003558 79.453234 7.555521 -5.988823 -2.100000 0.000313 -0.005535 79.698001 5.089558 -4.066659 -2.115758 -0.000042 -0.003676 -0.000002 -0.000000 -0.000004 4.570446 11.014691 -2.160851 -0.000018 0.000010 -0.000021 10.592400 -0.524475 -2.232370 75.317391 -12.783195 9.881924 27.841827 0.000086 -0.000209 98.655649 -68.672587 76.965133 28.328840 -0.000029 0.000016 0.000025 -0.000089 -0.000000 2.465999 -1.576165 2.681915 -39.733157 164.694576 -10.857154 3.217833 -1.871788 1.916376 156.439677 -27.277484 21.728242 2.656115 -1.528658 1.514450 136.764102 -28.663145 47.235136 2.020903 -1.154064 1.115150 -0.000001 -0.000000 0.000001 9.109375 -0.517890 2.259743 79.715671 -17.759489 14.852388 3.700043 0.000128 -0.000455 74.430026 -17.008375 12.970893 2.850059 0.000161 0.000222 71.732976 -13.698431 9.925382 2.774896 -0.000030 -0.000024 -0.000001 -0.000002 -0.000001 9.533446 0.000190 -0.000088 78.833702 -15.928551 13.111709 3.700029 0.000144 -0.000362 80.683365 -15.079021 12.825035 2.950063 0.000151 -0.000177 80.075587 -17.370240 14.630369 2.952870 -0.000045 0.000067 0.000001 0.000001 -0.000002 9.104573 -0.042869 -1.865209 78.462829 -15.590516 12.757341 3.150050 0.000161 -0.000100 82.850966 -14.640507 12.936123 2.950031 0.000149 -0.000060 84.155649 -15.206417 13.745899 2.644319 0.000028 0.000055 -0.000002 0.000000 -0.000000 8.077827 -0.486773 -3.806412 65.872250 -17.118170 11.532540 3.599987 0.000146 0.014577 67.901007 -14.803913 10.353839 2.100040 0.000144 0.007554 70.605134 -13.835838 10.175470 2.125491 0.000002 0.007517 -0.000004 0.000004 -0.000001 -8.207786 -6.751667 -1.599560 -0.077001 -0.000003 0.000080 -0.000002 -44.370110 0.345938 0.153719 -0.000000 -0.000000 0.000000 -44.423679 -3.043532 -0.076700 0.000000 -0.000002 -0.000006 -8.728667 10.710559 -0.000009 -0.000000 -0.000000 -0.000001 -0.000679 9.278123 0.000000 -0.000000 -0.000000 8.207792 -6.751710 -1.599556 -0.074518 -0.000003 0.000081 -0.000002 -44.370014 0.346960 0.148822 0.000002 0.000000 -0.000001 -44.423664 -3.044403 -0.074314 0.000000 -0.000002 -0.000004 -8.728671 10.710558 0.000007 -0.000000 -0.000000 0.000000 -0.000680 9.278137 -0.000000 0.000000 -0.000001 
0.000006 104.270477 1.554256 0.000010 0.000003 -0.000113 -0.000005 10.181587 0.131522 0.000001 -0.000003 0.000084 -0.000000 9.893967 -1.470711 0.000001 0.000000 -0.000000 -0.000000 9.220802 -1.370642 0.000000 -0.000000 -0.000000 0.000001 16.740433 -2.049030 0.000000 -0.000000 -0.000000 0.000000 9.617859 1.685014 0.000000 0.000000 0.000000 0.000002 22.037384 7.501101 0.000000 -0.000000 0.000000 -4.569968 11.014880 -2.160881 0.000008 0.000001 -0.000038 -10.592870 -0.524772 -2.231897 77.812172 30.511599 -24.828118 -27.841518 -0.000002 0.000551 -48.204613 107.246360 62.541570 -28.328800 0.000019 0.000031 -0.000317 -0.000043 0.000008 -2.464540 -1.573605 2.682227 123.581044 10.318868 125.514766 -3.215288 -1.872620 1.924667 150.854440 29.217890 -10.464739 -2.654962 -1.527844 1.513073 140.679412 28.163286 -37.262148 -2.018827 -1.152009 1.108060 -0.000002 -0.000002 0.000005 -9.108376 -0.517549 2.260058 88.568525 15.585781 -15.250984 -3.700066 0.000318 0.001444 85.246778 13.375527 -12.296320 -2.850087 0.000351 -0.000324 84.101239 11.481624 -10.362093 -2.772160 0.000000 -0.000020 0.000004 -0.000002 0.000002 -9.532578 0.000267 0.000190 83.716577 14.487729 -13.119842 -3.700064 0.000317 0.003930 84.407976 12.255372 -11.035308 -2.950065 0.000335 -0.001837 87.100451 11.967667 -11.374040 -2.946627 0.000001 -0.000153 0.000003 -0.000000 0.000001 -9.103695 -0.042757 -1.864918 82.997173 16.721480 -14.776363 -3.379333 0.000300 -0.000844 85.175437 10.250365 -9.441620 -2.889769 0.000344 0.000630 92.376437 7.677203 -8.049308 -2.638808 -0.000017 0.000941 -0.000001 0.000002 -0.000001 -8.076741 -0.486402 -3.806074 73.363328 17.955685 -13.308138 -3.600018 0.000267 -0.003578 77.019966 8.717190 -6.656170 -2.100019 0.000310 -0.005548 82.103266 5.315476 -4.439462 -2.115770 -0.000067 -0.003675 -0.000002 -0.000003 -0.000002 4.570446 11.014691 -2.160851 -0.000018 0.000010 -0.000021 10.592390 -0.524480 -2.232350 74.479914 -9.164335 6.972561 27.841827 0.000060 -0.000229 100.865946 -71.067681 81.674712 28.328840 -0.000028 0.000018 0.000023 -0.000089 -0.000000 2.466214 -1.576090 2.681845 -4.763745 165.767148 -82.302243 3.217863 -1.871860 1.916400 160.944733 -22.524055 40.953203 2.656110 -1.528678 1.514478 137.728852 -28.181480 56.441712 2.020891 -1.154067 1.115146 -0.000000 0.000007 0.000002 9.109373 -0.517879 2.259746 79.659410 -18.375854 15.355635 3.700026 0.000135 -0.000486 77.999162 -11.710107 9.507476 2.850046 0.000170 0.000204 76.644722 -9.458771 7.481459 2.774868 -0.000045 -0.000032 -0.000000 0.000000 0.000001 9.533456 0.000183 -0.000100 80.052891 -17.644047 14.845845 3.700032 0.000162 -0.000377 82.729840 -10.499159 9.248327 2.950055 0.000164 -0.000207 82.865733 -10.772990 9.517390 2.952881 -0.000016 0.000065 -0.000001 0.000003 -0.000000 9.104585 -0.042866 -1.865213 79.124559 -17.587910 14.568363 3.150033 0.000192 -0.000076 83.999340 -12.413861 11.187277 2.950004 0.000176 -0.000092 84.805917 -10.583256 9.670991 2.644311 0.000015 0.000058 0.000001 0.000002 -0.000000 8.077848 -0.486753 -3.806383 69.700694 -19.362480 13.980279 3.599997 0.000134 0.014593 70.306709 -17.060416 12.440185 2.100027 0.000161 0.007555 72.680275 -12.881268 9.857358 2.125514 -0.000013 0.007515 0.000001 -0.000003 0.000002 -8.207786 -6.751667 -1.599560 -0.077001 -0.000003 0.000080 -0.000002 -44.370110 0.345938 0.153719 -0.000000 -0.000000 0.000000 -44.423679 -3.043532 -0.076700 0.000000 -0.000002 -0.000006 -8.728667 10.710559 -0.000009 -0.000000 -0.000000 -0.000001 -0.000679 9.278123 0.000000 -0.000000 -0.000000 8.207792 -6.751710 -1.599556 -0.074518 -0.000003 0.000081 -0.000002 -44.370014 0.346960 0.148822 0.000002 0.000000 -0.000001 -44.423664 -3.044403 -0.074314 0.000000 -0.000002 -0.000004 -8.728671 10.710558 0.000007 -0.000000 -0.000000 0.000000 -0.000680 9.278137 -0.000000 0.000000 -0.000001 
0.000006 104.270477 1.554256 0.000010 0.000003 -0.000113 -0.000005 10.181587 0.131522 0.000001 -0.000003 0.000084 -0.000000 9.893967 -1.470711 0.000001 0.000000 -0.000000 -0.000000 9.220802 -1.370642 0.000000 -0.000000 -0.000000 0.000001 16.740433 -2.049030 0.000000 -0.000000 -0.000000 0.000000 9.617859 1.685014 0.000000 0.000000 0.000000 0.000002 22.037384 7.501101 0.000000 -0.000000 0.000000 -4.569968 11.014880 -2.160881 0.000008 0.000001 -0.000038 -10.592875 -0.524776 -2.231895 77.521486 31.071176 -25.164293 -27.841522 -0.000007 0.000559 -47.316231 106.608379 60.897639 -28.328815 0.000021 0.000025 -0.000321 -0.000041 0.000005 -2.464515 -1.573639 2.682251 123.571004 6.133302 132.197765 -3.215292 -1.872606 1.924664 151.230196 29.444266 -8.857594 -2.654963 -1.527848 1.513077 141.198479 28.085347 -36.755365 -2.018838 -1.152002 1.108063 -0.000003 -0.000002 0.000000 -9.108372 -0.517547 2.260081 89.152868 15.311218 -15.134685 -3.700055 0.000312 0.001460 85.421952 13.055816 -12.038180 -2.850090 0.000355 -0.000331 84.078310 11.166058 -10.072908 -2.772171 -0.000017 -0.000021 -0.000005 0.000002 -0.000000 -9.532578 0.000266 0.000188 84.170033 14.113133 -12.883945 -3.700064 0.000326 0.003935 84.505969 11.838050 -10.674752 -2.950059 0.000339 -0.001843 87.394156 11.695615 -11.171994 -2.946634 0.000000 -0.000155 0.000000 -0.000000 0.000001 -9.103694 -0.042755 -1.864894 83.614343 16.487786 -14.725912 -3.379338 0.000302 -0.000847 85.371798 9.704060 -8.969449 -2.889747 0.000350 0.000614 92.921281 7.351546 -7.783288 -2.638808 -0.000011 0.000941 0.000003 -0.000000 -0.000003 -8.076744 -0.486413 -3.806076 73.631994 17.905913 -13.335236 -3.600027 0.000254 -0.003566 77.159390 8.307420 -6.346869 -2.100018 0.000317 -0.005530 82.660145 4.891337 -4.111212 -2.115778 -0.000031 -0.003681 0.000002 0.000001 -0.000002 4.570446 11.014691 -2.160851 -0.000018 0.000010 -0.000021 10.592396 -0.524482 -2.232341 73.328371 -11.721083 8.738914 27.841833 0.000073 -0.000195 102.609898 -72.452352 84.891287 28.328823 -0.000029 0.000021 0.000020 -0.000089 0.000000 2.466289 -1.575999 2.681812 14.404746 176.707444 -117.656839 3.217880 -1.871875 1.916436 161.112278 -20.051420 50.597263 2.656109 -1.528639 1.514467 140.507551 -27.335886 53.285571 2.020887 -1.154058 1.115144 0.000004 -0.000000 0.000001 9.109389 -0.517876 2.259756 82.382702 -20.547791 18.016407 3.700036 0.000137 -0.000477 80.545682 -15.057391 12.792791 2.850045 0.000184 0.000210 80.507529 -12.241199 10.374373 2.774895 -0.000013 -0.000029 0.000001 -0.000000 -0.000000 9.533485 0.000182 -0.000090 81.051287 -18.432720 15.786044 3.700035 0.000154 -0.000385 86.044094 -12.009552 11.210529 2.950050 0.000176 -0.000193 87.303027 -11.021667 10.520365 2.952858 -0.000047 0.000063 -0.000000 -0.000001 0.000000 9.104607 -0.042871 -1.865218 80.839448 -19.191411 16.388224 3.150076 0.000190 -0.000084 86.111514 -14.244889 13.319957 2.950016 0.000185 -0.000079 86.983456 -10.780679 10.232192 2.644317 0.000046 0.000058 -0.000002 -0.000003 0.000000 8.077845 -0.486755 -3.806390 71.976376 -20.541306 15.446490 3.600016 0.000137 0.014596 71.091341 -17.896062 13.227536 2.100040 0.000135 0.007548 73.200244 -13.068385 10.091322 2.125522 -0.000015 0.007520 -0.000001 0.000001 -0.000001 -8.207786 -6.751667 -1.599560 -0.077001 -0.000003 0.000080 -0.000002 -44.370110 0.345938 0.153719 -0.000000 -0.000000 0.000000 -44.423679 -3.043532 -0.076700 0.000000 -0.000002 -0.000006 -8.728667 10.710559 -0.000009 -0.000000 -0.000000 -0.000001 -0.000679 9.278123 0.000000 -0.000000 -0.000000 8.207792 -6.751710 -1.599556 -0.074518 -0.000003 0.000081 -0.000002 -44.370014 0.346960 0.148822 0.000002 0.000000 -0.000001 -44.423664 -3.044403 -0.074314 0.000000 -0.000002 -0.000004 -8.728671 10.710558 0.000007 -0.000000 -0.000000 0.000000 -0.000680 9.278137 -0.000000 0.000000 -0.000001 
